<svg xmlns="http://www.w3.org/2000/svg" viewBox="0 0 64 64">
  <defs>
    <linearGradient id="bg" x1="0" y1="0" x2="1" y2="1">
      <stop offset="0%" stop-color="#2563eb" />
      <stop offset="100%" stop-color="#1d4ed8" />
    </linearGradient>
  </defs>
  <rect width="64" height="64" rx="16" fill="url(#bg)" />
  <path d="M22 16h20c2.21 0 4 1.79 4 4v24c0 2.21-1.79 4-4 4H22c-2.21 0-4-1.79-4-4V20c0-2.21 1.79-4 4-4z" fill="#f8fafc" />
  <path d="M27 22h9c3.866 0 7 2.312 7 6 0 2.554-1.333 4.318-3.504 5.07C41.1 33.033 42 34.932 42 37c0 4.018-3.147 6-7.25 6H27V22zm5.75 4.5H29v5h3.75c1.692 0 2.75-.808 2.75-2.5s-1.058-2.5-2.75-2.5zm.25 9.5H29v6h4c2.04 0 3.25-.874 3.25-3s-1.302-3-3.25-3z" fill="#2563eb" />
</svg>
