<svg xmlns="http://www.w3.org/2000/svg" viewBox="0 0 64 64" role="img" aria-labelledby="title desc">
  <title id="title">BuiltIt Logo</title>
  <desc id="desc">Rounded blue square containing a simple resume icon with bullet points and headings</desc>
  <defs>
    <linearGradient id="logo-bg" x1="0" y1="0" x2="1" y2="1">
      <stop offset="0%" stop-color="#2563eb" />
      <stop offset="100%" stop-color="#1d4ed8" />
    </linearGradient>
    <linearGradient id="page-fill" x1="0" y1="0" x2="0" y2="1">
      <stop offset="0%" stop-color="#ffffff" />
      <stop offset="100%" stop-color="#e2e8f0" />
    </linearGradient>
  </defs>
  <rect width="64" height="64" rx="16" fill="url(#logo-bg)" />
  <path d="M22 14h18a4 4 0 0 1 2.83 1.17l6 6A4 4 0 0 1 50 24v24a6 6 0 0 1-6 6H22a6 6 0 0 1-6-6V20a6 6 0 0 1 6-6z" fill="url(#page-fill)" />
  <path d="M40 14v8h8" fill="none" stroke="#cbd5f5" stroke-width="2" stroke-linecap="round" stroke-linejoin="round" />
  <rect x="24" y="24" width="16" height="3" rx="1.5" fill="#2563eb" opacity="0.9" />
  <circle cx="28" cy="32" r="1.6" fill="#2563eb" opacity="0.95" />
  <circle cx="28" cy="38" r="1.6" fill="#2563eb" opacity="0.85" />
  <circle cx="28" cy="44" r="1.6" fill="#2563eb" opacity="0.75" />
  <rect x="32" y="30.75" width="14" height="2.5" rx="1.25" fill="#94a3b8" />
  <rect x="32" y="36.75" width="14" height="2.5" rx="1.25" fill="#94a3b8" />
  <rect x="32" y="42.75" width="12" height="2.5" rx="1.25" fill="#94a3b8" />
  <rect x="24" y="49" width="16" height="2.5" rx="1.25" fill="#a5b4fc" />
</svg>
